<svg width="20" height="20" viewBox="0 0 20 20" fill="none" xmlns="http://www.w3.org/2000/svg">
<path d="M16.5998 12.6669C16.5821 12.6669 16.5666 12.6637 16.5532 12.6583C16.5404 12.6531 16.5263 12.6447 16.5117 12.63L11.0783 7.19667C10.4831 6.60141 9.51648 6.60141 8.92122 7.19667L3.48789 12.63C3.46636 12.6515 3.43562 12.6648 3.39977 12.6648C3.36392 12.6648 3.33319 12.6515 3.31166 12.63C3.29013 12.6085 3.27686 12.5777 3.27686 12.5419C3.27686 12.506 3.29013 12.4753 3.31166 12.4538L2.95811 12.1002L3.31166 12.4538L8.74499 7.02045C9.43188 6.33356 10.5576 6.33092 11.2554 7.02129C11.2557 7.02156 11.2559 7.02183 11.2562 7.0221L16.6879 12.4538C16.7094 12.4753 16.7227 12.506 16.7227 12.5419C16.7227 12.5749 16.7115 12.6035 16.6929 12.6246C16.653 12.659 16.6169 12.6669 16.5998 12.6669Z" fill="currentColor" stroke="currentColor"/>
</svg>
