<svg viewBox="0 0 16 16"><g><path d="M8.79999 7.9999L14.9 1.8999C15.125 1.6749 15.125 1.3249 14.9 1.0999C14.675 0.874902 14.325 0.874902 14.1 1.0999L7.99999 7.1999L1.89999 1.0999C1.67499 0.874902 1.32499 0.874902 1.09999 1.0999C0.874994 1.3249 0.874994 1.6749 1.09999 1.8999L7.19999 7.9999L1.09999 14.0999C0.874994 14.3249 0.874994 14.6749 1.09999 14.8999C1.19999 14.9999 1.34999 15.0749 1.49999 15.0749C1.64999 15.0749 1.79999 15.0249 1.89999 14.8999L7.99999 8.7999L14.1 14.8999C14.2 14.9999 14.35 15.0749 14.5 15.0749C14.65 15.0749 14.8 15.0249 14.9 14.8999C15.125 14.6749 15.125 14.3249 14.9 14.0999L8.79999 7.9999Z" fill="currentColor"/></g></svg>