<svg viewBox="0 0 16 16" fill="#000" xmlns="http://www.w3.org/2000/svg">
<path d="M7.29333 15.1C6.97333 15.1 6.66 15.02 6.36666 14.86C5.78 14.5333 5.42666 13.94 5.42666 13.2733V9.74C5.42666 9.40667 5.20666 8.90667 5 8.65333L2.50666 6.01334C2.08666 5.59334 1.76666 4.87334 1.76666 4.33334V2.8C1.76666 1.73333 2.57333 0.900002 3.6 0.900002H12.4C13.4133 0.900002 14.2333 1.72 14.2333 2.73333V4.2C14.2333 4.9 13.8133 5.69334 13.42 6.08667L10.5333 8.64C10.2533 8.87333 10.0333 9.38667 10.0333 9.8V12.6667C10.0333 13.26 9.66 13.9467 9.19333 14.2267L8.27333 14.82C7.97333 15.0067 7.63333 15.1 7.29333 15.1ZM3.6 1.9C3.13333 1.9 2.76666 2.29333 2.76666 2.8V4.33334C2.76666 4.58 2.96666 5.06 3.22 5.31333L5.76 7.98667C6.1 8.40667 6.43333 9.10667 6.43333 9.73334V13.2667C6.43333 13.7 6.73333 13.9133 6.86 13.98C7.14 14.1333 7.48 14.1333 7.74 13.9733L8.66666 13.38C8.85333 13.2667 9.04 12.9067 9.04 12.6667V9.8C9.04 9.08667 9.38666 8.3 9.88666 7.88L12.74 5.35333C12.9667 5.12667 13.24 4.58667 13.24 4.19333V2.73333C13.24 2.27333 12.8667 1.9 12.4067 1.9H3.6V1.9Z"  fill-opacity="0.88"/>
<path d="M4.00001 7.16667C3.90668 7.16667 3.82001 7.14 3.73334 7.09334C3.50001 6.94667 3.42668 6.63334 3.57334 6.4L6.86001 1.13334C7.00668 0.900003 7.31334 0.826669 7.54668 0.973336C7.78001 1.12 7.85334 1.42667 7.70668 1.66L4.42001 6.92667C4.32668 7.08 4.16668 7.16667 4.00001 7.16667Z" />
</svg>
