<svg viewBox="0 0 14 14" fill="#000" xmlns="http://www.w3.org/2000/svg">
<path d="M7 4.375H7.875M7 6.125H7.875M3.5 7.875H7.875M3.5 9.625H7.875M9.625 4.375H11.5937C11.956 4.375 12.25 4.669 12.25 5.03125V10.5C12.25 10.8481 12.1117 11.1819 11.8656 11.4281C11.6194 11.6742 11.2856 11.8125 10.9375 11.8125M9.625 4.375V10.5C9.625 10.8481 9.76328 11.1819 10.0094 11.4281C10.2556 11.6742 10.5894 11.8125 10.9375 11.8125M9.625 4.375V2.84375C9.625 2.4815 9.331 2.1875 8.96875 2.1875H2.40625C2.044 2.1875 1.75 2.4815 1.75 2.84375V10.5C1.75 10.8481 1.88828 11.1819 2.13442 11.4281C2.38056 11.6742 2.7144 11.8125 3.0625 11.8125H10.9375M3.5 4.375H5.25V6.125H3.5V4.375Z" stroke="#000" stroke-width="0.8" stroke-linecap="round" stroke-linejoin="round"/>
</svg>
