<svg viewBox="0 0 14 14" fill="#000" xmlns="http://www.w3.org/2000/svg">
<path d="M6.8775 6.92999C6.5625 6.92999 6.24167 6.87166 5.99084 6.76083L2.54917 5.23249C1.67417 4.84166 1.54584 4.31666 1.54584 4.03083C1.54584 3.74499 1.67417 3.21999 2.54917 2.82916L5.99084 1.30083C6.49834 1.07333 7.2625 1.07333 7.77 1.30083L11.2175 2.82916C12.0867 3.21416 12.2208 3.74499 12.2208 4.03083C12.2208 4.31666 12.0925 4.84166 11.2175 5.23249L7.77 6.76083C7.51334 6.87749 7.19834 6.92999 6.8775 6.92999ZM6.8775 2.00666C6.67917 2.00666 6.48667 2.03583 6.34667 2.09999L2.905 3.62833C2.54917 3.79166 2.42084 3.95499 2.42084 4.03083C2.42084 4.10666 2.54917 4.27583 2.89917 4.43333L6.34084 5.96166C6.62084 6.08416 7.12834 6.08416 7.40834 5.96166L10.8558 4.43333C11.2117 4.27583 11.34 4.10666 11.34 4.03083C11.34 3.95499 11.2117 3.78583 10.8558 3.62833L7.41417 2.09999C7.27417 2.04166 7.07584 2.00666 6.8775 2.00666Z" fill-opacity="0.88"/>
<path d="M7 9.96917C6.77833 9.96917 6.55667 9.92251 6.34667 9.82917L2.38583 8.0675C1.785 7.805 1.3125 7.07584 1.3125 6.41667C1.3125 6.17751 1.51083 5.97917 1.75 5.97917C1.98917 5.97917 2.1875 6.17751 2.1875 6.41667C2.1875 6.73751 2.45 7.14001 2.74167 7.27417L6.7025 9.03584C6.88917 9.1175 7.105 9.1175 7.2975 9.03584L11.2583 7.27417C11.55 7.14584 11.8125 6.73751 11.8125 6.41667C11.8125 6.17751 12.0108 5.97917 12.25 5.97917C12.4892 5.97917 12.6875 6.17751 12.6875 6.41667C12.6875 7.07584 12.215 7.80501 11.6142 8.07334L7.65333 9.83501C7.44333 9.92251 7.22167 9.96917 7 9.96917Z"/>
<path d="M7 12.8858C6.77833 12.8858 6.55667 12.8392 6.34667 12.7458L2.38583 10.9842C1.7325 10.6925 1.3125 10.045 1.3125 9.3275C1.3125 9.08833 1.51083 8.89 1.75 8.89C1.98917 8.89 2.1875 9.09417 2.1875 9.33333C2.1875 9.70083 2.40333 10.0392 2.74167 10.1908L6.7025 11.9525C6.88917 12.0342 7.105 12.0342 7.2975 11.9525L11.2583 10.1908C11.5967 10.0392 11.8125 9.70667 11.8125 9.33333C11.8125 9.09417 12.0108 8.89583 12.25 8.89583C12.4892 8.89583 12.6875 9.09417 12.6875 9.33333C12.6875 10.0508 12.2675 10.6983 11.6142 10.99L7.65333 12.7517C7.44333 12.8392 7.22167 12.8858 7 12.8858Z"/>
</svg>
