<svg viewBox="0 0 16 16" fill="#000" xmlns="http://www.w3.org/2000/svg">
<path d="M13.5866 14.0865C13.4533 14.0865 13.3266 14.0332 13.2333 13.9398L8.97996 9.68651C8.78663 9.49317 8.78663 9.17318 8.97996 8.97984L14.1333 3.82651C14.26 3.69984 14.4533 3.65318 14.6266 3.69984C14.8 3.75318 14.9333 3.89318 14.9733 4.06651C15.1 4.63318 15.1666 5.26651 15.1666 5.99984V9.99984C15.1666 11.8465 14.78 13.0932 13.94 13.9398C13.8466 14.0332 13.7066 14.0532 13.5866 14.0865ZM10.04 9.33317L13.5466 12.8398C13.9666 12.1932 14.1666 11.2732 14.1666 9.99984V5.99984C14.1666 5.72651 14.16 5.47318 14.14 5.23318L10.04 9.33317Z" fill="currentColor" fill-opacity="0.88"/>
<path d="M4.17967 14.9868C4.13967 14.9868 4.10635 14.9802 4.06635 14.9735C1.85968 14.4668 0.833008 12.8868 0.833008 10.0002V6.00016C0.833008 2.38016 2.37967 0.833496 5.99967 0.833496H9.99967C12.8863 0.833496 14.4663 1.86017 14.973 4.06683C15.013 4.2335 14.9597 4.4135 14.8397 4.5335L4.533 14.8402C4.43967 14.9335 4.313 14.9868 4.17967 14.9868ZM5.99967 1.8335C2.92634 1.8335 1.83301 2.92683 1.83301 6.00016V10.0002C1.83301 12.3135 2.47301 13.4735 4.02635 13.9335L13.9264 4.0335C13.473 2.48016 12.3063 1.84016 9.993 1.84016H5.99967V1.8335Z" fill="currentColor"/>
<path d="M10.0002 15.1666H6.00025C5.26692 15.1666 4.64025 15.1066 4.06692 14.9733C3.88692 14.9333 3.74691 14.8 3.70024 14.6266C3.64691 14.4533 3.70024 14.2666 3.82691 14.1333L8.98025 8.97996C9.17358 8.78663 9.49358 8.78663 9.68691 8.97996L13.9403 13.2333C14.0336 13.3266 14.0869 13.4533 14.0869 13.5866C14.0869 13.72 14.0336 13.8466 13.9403 13.94C13.0936 14.78 11.8469 15.1666 10.0002 15.1666ZM5.23359 14.14C5.47359 14.16 5.72692 14.1666 6.00025 14.1666H10.0002C11.2802 14.1666 12.1936 13.9666 12.8403 13.5466L9.33358 10.04L5.23359 14.14Z" fill="currentColor"/>
<path d="M6.08029 8.8732C5.66029 8.8732 5.24028 8.71987 4.90695 8.40653C3.84695 7.39987 3.4203 6.29321 3.67363 5.21321C3.92696 4.10654 4.89362 3.35986 6.08029 3.35986C7.26695 3.35986 8.23363 4.10654 8.48696 5.21321C8.73363 6.29987 8.30695 7.39987 7.24695 8.40653C6.92029 8.7132 6.50029 8.8732 6.08029 8.8732ZM4.64696 5.4332C4.43362 6.33986 5.04695 7.1532 5.60029 7.67987C5.87362 7.93987 6.29362 7.93987 6.56029 7.67987C7.10695 7.15987 7.72028 6.34653 7.51362 5.4332C7.33362 4.63986 6.62695 4.3532 6.08029 4.3532C5.53362 4.3532 4.83362 4.63986 4.64696 5.4332Z" fill="currentColor"/>
<path d="M6.10026 6.3265C5.73359 6.3265 5.43359 6.0265 5.43359 5.65983C5.43359 5.29316 5.72693 4.99316 6.10026 4.99316H6.10693C6.4736 4.99316 6.7736 5.29316 6.7736 5.65983C6.7736 6.0265 6.46693 6.3265 6.10026 6.3265Z" fill="currentColor"/>
</svg>
