<svg viewBox="0 0 16 16" fill="#000" xmlns="http://www.w3.org/2000/svg">
<path d="M10.4335 14.2734C10.1469 14.2734 9.86019 14.2134 9.62686 14.1001L6.12686 12.3468C5.92686 12.2468 5.53352 12.2534 5.34019 12.3668L3.76686 13.2668C3.08686 13.6534 2.38686 13.7068 1.86019 13.3934C1.32686 13.0868 1.02686 12.4601 1.02686 11.6734V5.19344C1.02686 4.58677 1.42686 3.9001 1.95352 3.6001L4.84019 1.94677C5.32686 1.66677 6.06686 1.64677 6.56686 1.9001L10.0669 3.65344C10.2669 3.75344 10.6535 3.7401 10.8535 3.63344L12.4202 2.7401C13.1002 2.35344 13.8002 2.3001 14.3269 2.61344C14.8602 2.9201 15.1602 3.54677 15.1602 4.33344V10.8201C15.1602 11.4268 14.7602 12.1134 14.2335 12.4134L11.3469 14.0668C11.0935 14.2001 10.7602 14.2734 10.4335 14.2734ZM5.76019 11.2801C6.04686 11.2801 6.33352 11.3401 6.56686 11.4534L10.0669 13.2068C10.2669 13.3068 10.6535 13.2934 10.8535 13.1868L13.7402 11.5334C13.9535 11.4134 14.1602 11.0534 14.1602 10.8134V4.32677C14.1602 3.90677 14.0402 3.59344 13.8202 3.47344C13.6069 3.35344 13.2735 3.4001 12.9135 3.60677L11.3469 4.5001C10.8602 4.7801 10.1202 4.8001 9.62019 4.54677L6.12019 2.79344C5.92019 2.69344 5.53352 2.70677 5.33352 2.81344L2.44686 4.46677C2.23352 4.58677 2.02686 4.94677 2.02686 5.19344V11.6801C2.02686 12.1001 2.14686 12.4134 2.36019 12.5334C2.57352 12.6601 2.90686 12.6068 3.27352 12.4001L4.84019 11.5068C5.10019 11.3534 5.43352 11.2801 5.76019 11.2801Z" />
<path d="M5.70654 11.8332C5.43321 11.8332 5.20654 11.6065 5.20654 11.3332V2.6665C5.20654 2.39317 5.43321 2.1665 5.70654 2.1665C5.97988 2.1665 6.20654 2.39317 6.20654 2.6665V11.3332C6.20654 11.6065 5.97988 11.8332 5.70654 11.8332Z" />
<path d="M10.4868 13.8336C10.2135 13.8336 9.98682 13.6069 9.98682 13.3336V4.41357C9.98682 4.14024 10.2135 3.91357 10.4868 3.91357C10.7601 3.91357 10.9868 4.14024 10.9868 4.41357V13.3336C10.9868 13.6069 10.7601 13.8336 10.4868 13.8336Z" />
</svg>
